<svg viewBox="0 0 374.5 390.12" fill="white" xmlns="http://www.w3.org/2000/svg">
    <path d="m374.22 187.11c0-103.34-83.77-187.11-187.11-187.11s-187.11 83.77-187.11 187.11 83.77 187.11 187.11 187.11c32.29 0 62.68-8.18 89.19-22.58 4-2.17 19.7 8.56 32.97 19.49 12.37 10.19 17.28 21.62 19.76 18.45 9.26-11.83 26.01-70.61 30.31-85.65 5.25-18.36 8.38-35.84 11.21-53.61 5.44-34.15 3.67-63.21 3.67-63.21zm-63.58 44.09s-46.71 66.24-123.35 66.24-123.35-66.24-123.35-66.24c-1.07-1.46-1.68-3.2-1.74-5.01-.16-4.93 3.7-9.06 8.63-9.22 3.04-.11 5.92 1.34 7.66 3.84 0 0 42.58 58.77 108.81 58.77s108.81-58.77 108.81-58.77c2.87-4.02 8.45-4.95 12.47-2.08s4.95 8.45 2.08 12.47z"
          fill="beige"/>
</svg>
